<svg width="63" height="19" viewBox="0 0 63 19" fill="none" xmlns="http://www.w3.org/2000/svg">
<path d="M0.352273 3.58807V0.545454H14.6875V3.58807H9.34375V18H5.69602V3.58807H0.352273ZM21.0476 18.2557C19.701 18.2557 18.5419 17.983 17.5703 17.4375C16.6044 16.8864 15.8601 16.108 15.3374 15.1023C14.8146 14.0909 14.5533 12.8949 14.5533 11.5142C14.5533 10.1676 14.8146 8.9858 15.3374 7.96875C15.8601 6.9517 16.5959 6.15909 17.5447 5.59091C18.4993 5.02273 19.6186 4.73864 20.9027 4.73864C21.7663 4.73864 22.5703 4.87784 23.3146 5.15625C24.0646 5.42898 24.718 5.84091 25.2749 6.39205C25.8374 6.94318 26.2749 7.63636 26.5874 8.47159C26.8999 9.30114 27.0561 10.2727 27.0561 11.3864V12.3835H16.0021V10.1335H23.6385C23.6385 9.6108 23.5249 9.14773 23.2976 8.74432C23.0703 8.34091 22.755 8.02557 22.3516 7.7983C21.9538 7.56534 21.4908 7.44886 20.9624 7.44886C20.4112 7.44886 19.9226 7.5767 19.4964 7.83239C19.076 8.08239 18.7464 8.42045 18.5078 8.84659C18.2692 9.26705 18.147 9.7358 18.1413 10.2528V12.392C18.1413 13.0398 18.2607 13.5994 18.4993 14.071C18.7436 14.5426 19.0874 14.9062 19.5305 15.1619C19.9737 15.4176 20.4993 15.5455 21.1072 15.5455C21.5107 15.5455 21.88 15.4886 22.2152 15.375C22.5504 15.2614 22.8374 15.0909 23.076 14.8636C23.3146 14.6364 23.4964 14.358 23.6214 14.0284L26.9794 14.25C26.8089 15.0568 26.4595 15.7614 25.9311 16.3636C25.4084 16.9602 24.7322 17.4261 23.9027 17.7614C23.0788 18.0909 22.1271 18.2557 21.0476 18.2557ZM35.3402 18.2557C33.9993 18.2557 32.8459 17.9716 31.88 17.4034C30.9197 16.8295 30.1811 16.0341 29.6641 15.017C29.1527 14 28.897 12.8295 28.897 11.5057C28.897 10.1648 29.1555 8.98864 29.6726 7.97727C30.1953 6.96023 30.9368 6.16761 31.897 5.59943C32.8572 5.02557 33.9993 4.73864 35.3232 4.73864C36.4652 4.73864 37.4652 4.94602 38.3232 5.36079C39.1811 5.77557 39.8601 6.35795 40.3601 7.10795C40.8601 7.85795 41.1357 8.73864 41.1868 9.75H37.7607C37.6641 9.09659 37.4084 8.57102 36.9936 8.1733C36.5845 7.76989 36.0476 7.56818 35.3828 7.56818C34.8203 7.56818 34.3288 7.72159 33.9084 8.02841C33.4936 8.32955 33.1697 8.76989 32.9368 9.34943C32.7038 9.92898 32.5874 10.6307 32.5874 11.4545C32.5874 12.2898 32.701 13 32.9283 13.5852C33.1612 14.1705 33.4879 14.6165 33.9084 14.9233C34.3288 15.2301 34.8203 15.3835 35.3828 15.3835C35.7976 15.3835 36.1697 15.2983 36.4993 15.1278C36.8345 14.9574 37.1101 14.7102 37.326 14.3864C37.5476 14.0568 37.6925 13.6619 37.7607 13.2017H41.1868C41.13 14.2017 40.8572 15.0824 40.3686 15.8438C39.8857 16.5994 39.218 17.1903 38.3658 17.6165C37.5135 18.0426 36.505 18.2557 35.3402 18.2557ZM47.142 10.4318V18H43.5114V0.545454H47.0398V7.21875H47.1932C47.4886 6.44602 47.9659 5.84091 48.625 5.40341C49.2841 4.96023 50.1108 4.73864 51.1051 4.73864C52.0142 4.73864 52.8068 4.9375 53.483 5.33523C54.1648 5.72727 54.6932 6.29261 55.0682 7.03125C55.4489 7.7642 55.6364 8.64205 55.6307 9.66477V18H52V10.3125C52.0057 9.50568 51.8011 8.87784 51.3864 8.42898C50.9773 7.98011 50.4034 7.75568 49.6648 7.75568C49.1705 7.75568 48.733 7.8608 48.3523 8.07102C47.9773 8.28125 47.6818 8.58807 47.4659 8.99148C47.2557 9.3892 47.1477 9.86932 47.142 10.4318ZM60.6101 18.2216C60.0476 18.2216 59.5646 18.0227 59.1612 17.625C58.7635 17.2216 58.5646 16.7386 58.5646 16.1761C58.5646 15.6193 58.7635 15.142 59.1612 14.7443C59.5646 14.3466 60.0476 14.1477 60.6101 14.1477C61.1555 14.1477 61.6328 14.3466 62.0419 14.7443C62.451 15.142 62.6555 15.6193 62.6555 16.1761C62.6555 16.5511 62.5589 16.8949 62.3658 17.2074C62.1783 17.5142 61.9311 17.7614 61.6243 17.9489C61.3175 18.1307 60.9794 18.2216 60.6101 18.2216Z" fill="#FDFDFD"/>
</svg>
